<?xml version="1.0" encoding="UTF-8" standalone="no"?>
<!DOCTYPE svg PUBLIC "-//W3C//DTD SVG 1.1//EN" "http://www.w3.org/Graphics/SVG/1.1/DTD/svg11.dtd">
<svg width="100%" height="100%" viewBox="0 0 512 512" version="1.1" xmlns="http://www.w3.org/2000/svg" xmlns:xlink="http://www.w3.org/1999/xlink" xml:space="preserve" xmlns:serif="http://www.serif.com/" style="fill-rule:evenodd;clip-rule:evenodd;stroke-linejoin:round;stroke-miterlimit:2;">
    <path d="M256,0C397.29,0 512,114.71 512,256C512,397.29 397.29,512 256,512C114.71,512 0,397.29 0,256C0,114.71 114.71,0 256,0ZM256,48C361.968,48 464,150.032 464,256C464,361.968 361.968,464 256,464C150.032,464 48,361.968 48,256C48,150.032 150.032,48 256,48Z"/>
    <g transform="matrix(0.989315,0,0,0.989315,-34.8876,60.4416)">
        <g transform="matrix(448,0,0,448,148.193,353.126)">
            <path d="M0.237,-0.208C0.234,-0.192 0.231,-0.177 0.23,-0.163C0.229,-0.149 0.229,-0.137 0.232,-0.127C0.235,-0.116 0.239,-0.108 0.246,-0.102C0.253,-0.095 0.262,-0.092 0.275,-0.092C0.296,-0.092 0.314,-0.099 0.328,-0.114C0.341,-0.129 0.352,-0.156 0.36,-0.196C0.365,-0.217 0.367,-0.236 0.367,-0.252C0.367,-0.274 0.362,-0.289 0.35,-0.297C0.34,-0.305 0.321,-0.309 0.296,-0.309L0.256,-0.309L0.278,-0.415L0.324,-0.415C0.352,-0.415 0.373,-0.424 0.387,-0.442C0.4,-0.46 0.411,-0.486 0.418,-0.521C0.423,-0.549 0.423,-0.57 0.417,-0.583C0.411,-0.596 0.398,-0.602 0.379,-0.602C0.36,-0.602 0.343,-0.595 0.328,-0.581C0.313,-0.567 0.301,-0.54 0.292,-0.5L0.142,-0.5C0.157,-0.571 0.186,-0.623 0.229,-0.656C0.272,-0.691 0.333,-0.708 0.413,-0.708C0.483,-0.708 0.532,-0.693 0.559,-0.662C0.586,-0.631 0.592,-0.582 0.578,-0.513C0.571,-0.477 0.556,-0.446 0.533,-0.421C0.51,-0.395 0.482,-0.378 0.448,-0.371L0.447,-0.369C0.487,-0.36 0.513,-0.342 0.526,-0.315C0.539,-0.288 0.54,-0.249 0.529,-0.199C0.521,-0.161 0.508,-0.129 0.491,-0.102C0.474,-0.075 0.453,-0.053 0.43,-0.035C0.407,-0.019 0.381,-0.006 0.352,0.002C0.323,0.01 0.293,0.014 0.262,0.014C0.227,0.014 0.195,0.011 0.168,0.004C0.141,-0.002 0.118,-0.013 0.102,-0.029C0.085,-0.046 0.074,-0.068 0.069,-0.097C0.064,-0.126 0.066,-0.163 0.075,-0.208L0.237,-0.208Z" style="fill-rule:nonzero;"/>
        </g>
    </g>
</svg>
