<?xml version="1.0" encoding="UTF-8" standalone="no"?>
<!DOCTYPE svg PUBLIC "-//W3C//DTD SVG 1.1//EN" "http://www.w3.org/Graphics/SVG/1.1/DTD/svg11.dtd">
<svg viewBox="0 0 512 512" version="1.1" style="fill-rule:evenodd;clip-rule:evenodd;stroke-linejoin:round;stroke-miterlimit:2;">
    <path d="M256,0C397.29,0 512,114.71 512,256C512,397.29 397.29,512 256,512C114.71,512 0,397.29 0,256C0,114.71 114.71,0 256,0ZM256,32C379.629,32 480,132.371 480,256C480,379.629 379.629,480 256,480C132.371,480 32,379.629 32,256C32,132.371 132.371,32 256,32Z"/>
    <path id="SK" d="M72.242,311.692L276.817,186.308L233.373,142.863L391.765,120.235L369.137,278.627L325.692,235.183L200.331,439.72C184.167,434.81 168.685,427.791 154.318,418.842L351.696,173.505L135.031,405.111C130.713,401.616 126.537,397.926 122.514,394.043L117.748,389.277C113.963,385.356 110.333,381.258 106.869,376.988L338.495,160.304L93.123,357.71C87.607,348.857 82.739,339.432 78.615,329.475C76.178,323.591 74.055,317.655 72.242,311.692ZM320,437.024L320,424C320,391.415 314.577,360.087 304.582,330.863L331.766,286.511L391.765,346.51L396.674,312.141C403.571,329.952 408.747,348.615 411.997,367.924C391.829,396.104 363.809,419.163 329.475,433.385C326.333,434.687 323.175,435.899 320,437.024ZM112.865,128L128,128C144.881,128 161.424,129.455 177.501,132.246L225.489,180.234L204.264,193.243C173.632,170.332 138.302,153.374 99.995,144.088C103.98,138.517 108.274,133.146 112.865,128Z"/>
</svg>
