<?xml version="1.0" encoding="UTF-8" standalone="no"?>
<!DOCTYPE svg PUBLIC "-//W3C//DTD SVG 1.1//EN" "http://www.w3.org/Graphics/SVG/1.1/DTD/svg11.dtd">
<svg viewBox="0 0 512 512" version="1.1" style="fill-rule:evenodd;clip-rule:evenodd;stroke-linejoin:round;stroke-miterlimit:2;">
    <path d="M256,0C397.29,0 512,114.71 512,256C512,397.29 397.29,512 256,512C114.71,512 0,397.29 0,256C0,114.71 114.71,0 256,0ZM256,32C379.629,32 480,132.371 480,256C480,379.629 379.629,480 256,480C132.371,480 32,379.629 32,256C32,132.371 132.371,32 256,32Z"/>
    <g id="_1L" serif:id="1L" transform="matrix(1.00888,0,0,1.00888,-46.051,59.7384)">
        <g transform="matrix(448,0,0,448,148.193,353.126)">
            <path d="M0.299,-0.491L0.163,-0.491L0.185,-0.597L0.206,-0.597C0.238,-0.597 0.265,-0.601 0.286,-0.608C0.308,-0.615 0.326,-0.625 0.341,-0.635C0.355,-0.647 0.366,-0.659 0.375,-0.672C0.383,-0.685 0.389,-0.697 0.394,-0.708L0.512,-0.708L0.365,0L0.197,0L0.299,-0.491Z" style="fill-rule:nonzero;"/>
        </g>
    </g>
</svg>
