<?xml version="1.0" encoding="UTF-8" standalone="no"?>
<!DOCTYPE svg PUBLIC "-//W3C//DTD SVG 1.1//EN" "http://www.w3.org/Graphics/SVG/1.1/DTD/svg11.dtd">
<svg viewBox="0 0 512 512" version="1.1"style="fill-rule:evenodd;clip-rule:evenodd;stroke-linejoin:round;stroke-miterlimit:2;">
    <path d="M256,0C397.29,0 512,114.71 512,256C512,397.29 397.29,512 256,512C114.71,512 0,397.29 0,256C0,114.71 114.71,0 256,0ZM256,32C379.629,32 480,132.371 480,256C480,379.629 379.629,480 256,480C132.371,480 32,379.629 32,256C32,132.371 132.371,32 256,32Z"/>
    <g id="LAP">
    </g>
    <g id="CAT">
        <g id="ALL">
            <g transform="matrix(1.2816,0,0,1.2816,-85.6426,-70.1352)">
                <path d="M346.475,134.625L386.425,174.575L306.525,254.475L386.425,334.375L346.475,374.325L266.575,294.425L186.675,374.325L146.725,334.375L226.625,254.475L146.725,174.575L186.675,134.625L266.575,214.525L346.475,134.625Z"/>
            </g>
            <path d="M331.086,404.914L312,424L256,368L200,424L180.914,404.914L256,329.827L331.086,404.914ZM182.173,256L107.086,331.086L88,312L144,256L88,200L107.086,180.914L182.173,256ZM404.914,180.914L424,200L368,256L424,312L404.914,331.086L329.827,256L404.914,180.914ZM331.086,107.086L256,182.173L180.914,107.086L200,88L256,144L312,88L331.086,107.086Z"/>
        </g>
    </g>
</svg>
