<?xml version="1.0" encoding="UTF-8" standalone="no"?>
<!DOCTYPE svg PUBLIC "-//W3C//DTD SVG 1.1//EN" "http://www.w3.org/Graphics/SVG/1.1/DTD/svg11.dtd">
<svg viewBox="0 0 512 512" version="1.1" style="fill-rule:evenodd;clip-rule:evenodd;stroke-linejoin:round;stroke-miterlimit:2;">
    <path d="M256,0C397.29,0 512,114.71 512,256C512,397.29 397.29,512 256,512C114.71,512 0,397.29 0,256C0,114.71 114.71,0 256,0ZM256,32C379.629,32 480,132.371 480,256C480,379.629 379.629,480 256,480C132.371,480 32,379.629 32,256C32,132.371 132.371,32 256,32Z"/>
    <path id="UP" d="M82.73,338.76L138.305,283.186C115.833,225.775 127.775,157.951 174.132,111.594C203.868,81.858 247.37,73.315 290.856,83.972L179.085,195.744L208.073,303.927L316.256,332.915L428.028,221.144C438.685,264.63 430.142,308.132 400.406,337.868C354.049,384.225 286.225,396.167 228.814,373.695L173.24,429.27C133.716,410.339 101.66,378.283 82.73,338.76ZM343.837,168.163L364.543,245.437L307.974,302.005L230.7,281.3L209.995,204.026L266.563,147.457L343.837,168.163Z"/>
</svg>
