<?xml version="1.0" encoding="UTF-8" standalone="no"?>
<!DOCTYPE svg PUBLIC "-//W3C//DTD SVG 1.1//EN" "http://www.w3.org/Graphics/SVG/1.1/DTD/svg11.dtd">
<svg viewBox="0 0 512 512" version="1.1"style="fill-rule:evenodd;clip-rule:evenodd;stroke-linejoin:round;stroke-miterlimit:2;">
    <path d="M256,0C397.29,0 512,114.71 512,256C512,397.29 397.29,512 256,512C114.71,512 0,397.29 0,256C0,114.71 114.71,0 256,0ZM256,32C379.629,32 480,132.371 480,256C480,379.629 379.629,480 256,480C132.371,480 32,379.629 32,256C32,132.371 132.371,32 256,32Z"/>
    <g id="_3L" serif:id="3L" transform="matrix(0.989315,0,0,0.989315,-66.8876,60.4416)">
        <path d="M254.369,259.942C252.876,267.11 251.83,273.83 251.233,280.102C250.636,286.374 250.934,291.825 252.129,296.454C253.324,301.084 255.414,304.817 258.401,307.654C261.388,310.492 265.718,311.91 271.393,311.91C280.95,311.91 288.79,308.625 294.913,302.054C301.036,295.484 305.889,283.238 309.473,265.318C311.564,255.761 312.609,247.398 312.609,240.23C312.609,230.374 310.145,223.654 305.217,220.07C300.289,216.486 292.15,214.694 280.801,214.694L262.881,214.694L272.737,167.206L293.345,167.206C305.889,167.206 315.222,163.174 321.345,155.11C327.468,147.046 332.172,135.249 335.457,119.718C337.846,107.174 337.697,97.99 335.009,92.166C332.321,86.342 326.646,83.43 317.985,83.43C309.622,83.43 302.006,86.566 295.137,92.838C288.268,99.11 282.892,111.206 279.009,129.126L211.809,129.126C218.38,97.468 231.372,74.172 250.785,59.238C269.9,43.708 297.377,35.942 333.217,35.942C364.577,35.942 386.305,42.812 398.401,56.55C410.497,70.289 413.409,92.54 407.137,123.302C403.852,139.43 397.132,153.244 386.977,164.742C376.822,176.241 364.129,183.633 348.897,186.918L348.449,187.814C366.369,191.996 378.166,200.134 383.841,212.23C389.516,224.326 389.964,241.574 385.185,263.974C381.601,280.998 375.926,295.558 368.161,307.654C360.396,319.75 351.286,329.606 340.833,337.222C330.38,344.838 318.657,350.438 305.665,354.022C292.673,357.606 279.308,359.398 265.569,359.398C249.74,359.398 235.702,357.98 223.457,355.142C211.212,352.305 201.281,347.228 193.665,339.91C186.049,332.593 181.121,322.513 178.881,309.67C176.641,296.828 177.612,280.252 181.793,259.942L254.369,259.942Z" style="fill-rule:nonzero;"/>
    </g>
    <g id="_3L1" serif:id="3L" transform="matrix(0.989315,0,0,0.989315,-66.8876,60.4416)">
        <path d="M254.369,259.942C252.876,267.11 251.83,273.83 251.233,280.102C250.636,286.374 250.934,291.825 252.129,296.454C253.324,301.084 255.414,304.817 258.401,307.654C261.388,310.492 265.718,311.91 271.393,311.91C280.95,311.91 288.79,308.625 294.913,302.054C301.036,295.484 305.889,283.238 309.473,265.318C311.564,255.761 312.609,247.398 312.609,240.23C312.609,230.374 310.145,223.654 305.217,220.07C300.289,216.486 292.15,214.694 280.801,214.694L262.881,214.694L272.737,167.206L293.345,167.206C305.889,167.206 315.222,163.174 321.345,155.11C327.468,147.046 332.172,135.249 335.457,119.718C337.846,107.174 337.697,97.99 335.009,92.166C332.321,86.342 326.646,83.43 317.985,83.43C309.622,83.43 302.006,86.566 295.137,92.838C288.268,99.11 282.892,111.206 279.009,129.126L211.809,129.126C218.38,97.468 231.372,74.172 250.785,59.238C269.9,43.708 297.377,35.942 333.217,35.942C364.577,35.942 386.305,42.812 398.401,56.55C410.497,70.289 413.409,92.54 407.137,123.302C403.852,139.43 397.132,153.244 386.977,164.742C376.822,176.241 364.129,183.633 348.897,186.918L348.449,187.814C366.369,191.996 378.166,200.134 383.841,212.23C389.516,224.326 389.964,241.574 385.185,263.974C381.601,280.998 375.926,295.558 368.161,307.654C360.396,319.75 351.286,329.606 340.833,337.222C330.38,344.838 318.657,350.438 305.665,354.022C292.673,357.606 279.308,359.398 265.569,359.398C249.74,359.398 235.702,357.98 223.457,355.142C211.212,352.305 201.281,347.228 193.665,339.91C186.049,332.593 181.121,322.513 178.881,309.67C176.641,296.828 177.612,280.252 181.793,259.942L254.369,259.942Z" style="fill-rule:nonzero;"/>
    </g>
    <path id="ALL" d="M354.863,160L360.889,160L360.889,245.333L432,245.333L432,330.667L360.889,330.667L360.889,416L275.556,416L275.556,409.898C276.964,408.96 278.354,407.992 279.725,406.993C291.597,398.343 301.985,387.19 310.804,373.453C319.444,359.995 325.851,343.832 329.839,324.892C335.496,298.373 334.066,277.952 327.337,263.609C324.297,257.128 320.02,251.366 314.425,246.445C319.284,242.867 323.79,238.723 327.948,234.015C339.815,220.577 347.738,204.468 351.577,185.62C353.45,176.433 354.527,167.894 354.863,160Z"/>
</svg>
