<?xml version="1.0" encoding="UTF-8" standalone="no"?>
<!DOCTYPE svg PUBLIC "-//W3C//DTD SVG 1.1//EN" "http://www.w3.org/Graphics/SVG/1.1/DTD/svg11.dtd">
<svg width="100%" height="100%" viewBox="0 0 824 128" version="1.1" xmlns="http://www.w3.org/2000/svg" xmlns:xlink="http://www.w3.org/1999/xlink" style="fill-rule:evenodd;">
	<defs>
		<linearGradient id="logoCoreFill" x1="0%" y1="0%" x2="100%" y2="0%" gradientTransform="rotate(105)">
			<stop offset="0%" style="stop-color:#FF8000;stop-opacity:1" />
			<stop offset="100%" style="stop-color:#FFC000;stop-opacity:1" />
		</linearGradient>
		<linearGradient id="logoOutlineFill" x1="0%" y1="0%" x2="100%" y2="0%" gradientTransform="rotate(105)">
			<stop offset="0%" style="stop-color:#FFD000;stop-opacity:1" />
			<stop offset="100%" style="stop-color:#FF7000;stop-opacity:1" />
		</linearGradient>
		<filter id="logoCoreFilter" filterUnits="objectBoundingBox" x="-10%" y="-10%" width="120%" height="120%">
			<feComponentTransfer in="SourceAlpha">
				<feFuncA type="table" tableValues="1 0" />
			</feComponentTransfer>
			<feGaussianBlur stdDeviation="7.5" result="blur" />
			<feOffset in="blur" dy="2.5" dx="4" result="offset1" />
			<feFlood flood-color="#000000A0" />
			<feComposite in2="offset1" operator="in" />
			<feComposite in2="SourceAlpha" operator="in" result="shadow" />
			<feOffset in="blur" dy="-2.5" dx="-4" result="offset2" />
			<feFlood flood-color="#FFFF0080" />
			<feComposite in2="offset2" operator="in" />
			<feComposite in2="SourceAlpha" operator="in" result="highlight" />
			<feMerge>
				<feMergeNode in="SourceGraphic" />
				<feMergeNode in="shadow"/>
				<feMergeNode in="highlight" />
			</feMerge>
		</filter>
	</defs>
	<g id="logoRank">
		<path class="logoRankCore" fill="url(#logoCoreFill)" filter="url(#logoCoreFilter)" d="M440.8,4.333L489.427,4.333C495.332,4.333 500.373,5.113 504.55,6.672C508.728,8.232 512.126,10.432 514.744,13.273C517.361,16.114 519.255,19.484 520.425,23.383C521.595,27.282 522.18,31.515 522.18,36.083C522.18,44.104 520.564,50.565 517.334,55.467C514.103,60.369 508.923,63.376 501.793,64.49L501.793,64.825C509.257,65.493 514.381,68.111 517.167,72.679C519.952,77.246 521.344,83.54 521.344,91.561L521.344,106.601C521.344,108.272 521.4,109.859 521.511,111.363C521.623,112.867 521.79,114.232 522.013,115.457C522.235,116.683 522.514,117.63 522.848,118.298C523.294,118.966 523.739,119.607 524.185,120.22C524.631,120.832 525.355,121.417 526.357,121.974L526.357,123.645L493.271,123.645C492.491,122.086 491.906,120.248 491.516,118.131C491.126,116.014 490.848,113.898 490.681,111.781C490.513,109.664 490.402,107.631 490.346,105.682C490.291,103.732 490.263,102.145 490.263,100.919L490.263,92.898C490.263,89.556 490.096,86.771 489.761,84.543C489.427,82.315 488.842,80.56 488.007,79.279C487.171,77.998 486.113,77.107 484.832,76.606C483.551,76.104 481.963,75.854 480.069,75.854L471.881,75.854L471.881,123.645L440.8,123.645L440.8,4.333ZM629.628,4.333L664.385,4.333L684.438,77.859L684.772,77.859L684.772,4.333L713.848,4.333L713.848,123.645L679.759,123.645L659.038,49.952L658.704,49.952L658.704,123.645L629.628,123.645L629.628,4.333ZM727.384,4.333L758.465,4.333L758.465,50.12L758.799,50.12L781.86,4.333L814.946,4.333L784.867,56.469L818.623,123.645L783.196,123.645L764.982,82.036L758.465,92.063L758.465,123.645L727.384,123.645L727.384,4.333ZM556.269,4.333L595.371,4.333L624.447,123.645L591.361,123.645L588.186,102.757L563.454,102.757L560.279,123.645L527.193,123.645L556.269,4.333ZM575.987,28.73L575.653,28.73L567.131,79.363L584.51,79.363L575.987,28.73ZM471.881,54.798L478.064,54.798C482.52,54.798 485.807,53.489 487.923,50.871C490.04,48.254 491.098,44.828 491.098,40.595C491.098,35.581 490.068,32.017 488.007,29.9C485.946,27.783 482.576,26.725 477.897,26.725L471.881,26.725L471.881,54.798Z"/>
		<path class="logoRankOutline" fill="url(#logoOutlineFill)" filter="url(#logoOutlineFilter)" d="M492.035,125.645L491.482,124.54C490.626,122.829 489.977,120.815 489.549,118.493C489.147,116.308 488.859,114.123 488.687,111.938C488.517,109.787 488.404,107.72 488.347,105.739C488.291,103.766 488.263,102.159 488.263,100.919C488.263,100.919 488.263,92.898 488.263,92.898C488.263,89.675 488.106,86.989 487.784,84.84C487.501,82.953 487.039,81.456 486.332,80.372C485.742,79.467 485.008,78.822 484.103,78.468C483.019,78.044 481.672,77.854 480.069,77.854L473.881,77.854L473.881,125.645L438.8,125.645L438.8,2.333L489.427,2.333C495.606,2.333 500.878,3.167 505.25,4.799C509.747,6.478 513.396,8.86 516.214,11.918C519.035,14.979 521.08,18.607 522.341,22.808C523.563,26.884 524.18,31.308 524.18,36.083C524.18,44.565 522.42,51.384 519.004,56.567C516.725,60.024 513.573,62.643 509.526,64.39C513.752,65.885 516.855,68.326 518.874,71.637C521.815,76.46 523.344,83.092 523.344,91.561C523.344,91.561 523.344,106.601 523.344,106.601C523.344,108.22 523.398,109.758 523.506,111.215C523.611,112.642 523.769,113.937 523.98,115.099C524.149,116.029 524.341,116.766 524.587,117.3C524.992,117.905 525.397,118.486 525.802,119.043C525.9,119.178 526.02,119.308 526.161,119.434L554.698,2.333L596.942,2.333L626.993,125.645L589.642,125.645L586.467,104.757L565.173,104.757L561.998,125.645L492.035,125.645ZM682.772,64.15L682.772,2.333L715.848,2.333L715.848,125.645L678.244,125.645L660.704,63.265L660.704,125.645L627.628,125.645L627.628,2.333L665.913,2.333L682.772,64.15ZM760.465,42.366L780.628,2.333L818.409,2.333L787.139,56.535L821.866,125.645L781.889,125.645L764.637,86.236L760.465,92.656L760.465,125.645L725.384,125.645L725.384,2.333L760.465,2.333L760.465,42.366ZM756.465,6.333L729.384,6.333L729.384,121.645L756.465,121.645L756.465,91.47L765.327,77.836L784.504,121.645L815.379,121.645L782.596,56.404L811.483,6.333L783.092,6.333L760.031,52.12L756.465,52.12L756.465,6.333ZM442.8,6.333L442.8,121.645L469.881,121.645L469.881,73.854L480.069,73.854C482.254,73.854 484.083,74.165 485.561,74.743C487.218,75.392 488.601,76.529 489.682,78.187C490.646,79.664 491.354,81.677 491.739,84.246C492.085,86.554 492.263,89.437 492.263,92.898L492.263,100.919C492.263,102.13 492.29,103.698 492.346,105.625C492.4,107.542 492.51,109.542 492.674,111.624C492.836,113.672 493.106,115.72 493.483,117.769C493.747,119.201 494.105,120.494 494.565,121.645L522.761,121.645C522.692,121.563 522.628,121.479 522.567,121.396C522.106,120.762 521.645,120.099 521.184,119.407L521.115,119.304L521.059,119.192C520.661,118.396 520.31,117.274 520.045,115.815C519.811,114.527 519.634,113.092 519.517,111.511C519.402,109.96 519.344,108.324 519.344,106.601L519.344,91.561C519.344,83.988 518.089,78.032 515.459,73.72C512.963,69.627 508.303,67.416 501.615,66.817L499.793,66.654L499.793,62.779L501.484,62.514C507.973,61.501 512.724,58.827 515.664,54.366C518.709,49.746 520.18,43.643 520.18,36.083C520.18,31.722 519.626,27.68 518.509,23.958C517.43,20.361 515.688,17.249 513.273,14.628C510.855,12.005 507.709,9.986 503.851,8.546C499.867,7.059 495.057,6.333 489.427,6.333L442.8,6.333ZM681.274,121.645L711.848,121.645L711.848,6.333L686.772,6.333L686.772,79.859L682.91,79.859L662.858,6.333L631.628,6.333L631.628,121.645L656.704,121.645L656.704,47.952L660.553,47.952L681.274,121.645ZM593.08,121.645L621.902,121.645L593.8,6.333L557.84,6.333L529.739,121.645L558.56,121.645L561.735,100.757L589.905,100.757L593.08,121.645ZM577.679,26.73L573.962,26.73L564.766,81.363L586.874,81.363L577.679,26.73ZM569.495,77.363L582.145,77.363L575.82,39.787L569.495,77.363ZM469.881,56.798L478.064,56.798C483.243,56.798 487.019,55.171 489.479,52.129C491.857,49.187 493.098,45.352 493.098,40.595C493.098,34.907 491.778,30.906 489.44,28.505C487.078,26.079 483.26,24.725 477.897,24.725L469.881,24.725L469.881,56.798ZM473.881,52.798L478.064,52.798C481.799,52.798 484.594,51.808 486.368,49.614C488.222,47.32 489.098,44.303 489.098,40.595C489.098,36.255 488.358,33.127 486.574,31.295C484.814,29.488 481.893,28.725 477.897,28.725L473.881,28.725L473.881,52.798Z"/>
	</g>
	<g id="logoRacer" transform="matrix(2.32089,0,0,2.32089,-552.79,-492.341)">
		<g transform="matrix(0.430869,0,0,0.430869,238.18,212.135)">
			<path class="logoRacerCore" fill="url(#logoCoreFill)" filter="url(#logoCoreFilter)" d="M257.495,40.595C258.943,33.799 259.249,29.176 258.414,26.725C257.578,24.274 255.657,23.049 252.649,23.049C250.309,23.049 248.304,23.661 246.633,24.887C244.962,26.112 243.43,28.285 242.038,31.404C240.645,34.523 239.308,38.729 238.027,44.02C236.746,49.312 235.27,55.968 233.599,63.989C231.928,72.01 230.647,78.666 229.755,83.958C228.864,89.25 228.446,93.455 228.502,96.574C228.558,99.694 229.171,101.866 230.34,103.092C231.51,104.317 233.265,104.93 235.604,104.93C237.498,104.93 239.141,104.456 240.534,103.509C241.926,102.562 243.207,100.975 244.377,98.747C245.547,96.519 246.633,93.539 247.636,89.807C248.638,86.075 249.752,81.368 250.978,75.686L281.056,75.686L279.218,84.213C277.547,92.434 275.041,99.175 271.699,104.437C268.356,109.698 264.513,113.863 260.168,116.933C255.824,120.002 251.173,122.112 246.215,123.263C241.258,124.414 236.272,124.989 231.259,124.989C222.57,124.989 215.691,123.866 210.622,121.619C205.553,119.371 201.96,115.809 199.844,110.931C197.727,106.053 196.892,99.751 197.337,92.023C197.783,84.295 199.175,74.951 201.515,63.989C203.854,52.809 206.556,43.327 209.619,35.544C212.683,27.762 216.387,21.459 220.732,16.636C225.076,11.813 230.201,8.333 236.105,6.195C242.01,4.058 248.972,2.989 256.993,2.989C264.012,2.989 269.777,3.866 274.289,5.62C278.8,7.374 282.254,9.867 284.649,13.101C287.044,16.335 288.465,20.226 288.91,24.775C289.356,29.324 288.966,34.448 287.741,40.148L286.237,47.279L256.158,47.279L257.495,40.595ZM28.562,4.333L77.189,4.333C83.094,4.333 87.967,5.113 91.811,6.672C95.654,8.232 98.579,10.432 100.584,13.273C102.589,16.114 103.787,19.484 104.177,23.383C104.566,27.282 104.26,31.515 103.258,36.083C101.677,44.104 98.72,50.565 94.385,55.467C90.051,60.369 84.208,63.376 76.855,64.49L76.855,64.825C84.208,65.493 88.781,68.111 90.575,72.679C92.368,77.246 92.418,83.54 90.725,91.561L88.73,101.755C88.065,104.874 87.456,108.105 86.902,111.447C86.349,114.789 86.293,117.073 86.735,118.298C86.958,118.966 87.263,119.607 87.65,120.22C88.038,120.832 88.674,121.417 89.56,121.974L89.229,123.645L56.301,123.645C55.856,122.309 55.633,120.47 55.633,118.131C55.633,115.012 55.939,111.837 56.552,108.606C57.165,105.375 57.638,102.813 57.972,100.919L59.643,92.898C61.092,86.103 61.287,81.563 60.228,79.279C59.17,76.995 56.747,75.854 52.959,75.854L44.771,75.854L34.912,123.645L3.831,123.645L28.562,4.333ZM307.125,4.333L377.81,4.333L372.462,29.733L332.859,29.733L328.681,50.12L365.778,50.12L360.765,74.517L323.668,74.517L318.655,98.246L359.762,98.246L354.582,123.645L282.393,123.645L307.125,4.333ZM144.031,4.333L183.133,4.333L187.478,123.645L154.391,123.645L155.394,102.757L130.663,102.757L123.31,123.645L90.223,123.645L144.031,4.333ZM390.677,4.333L439.304,4.333C445.208,4.333 450.082,5.113 453.926,6.672C457.769,8.232 460.693,10.432 462.699,13.273C464.704,16.114 465.901,19.484 466.291,23.383C466.681,27.282 466.375,31.515 465.372,36.083C463.792,44.104 460.834,50.565 456.5,55.467C452.166,60.369 446.322,63.376 438.97,64.49L438.97,64.825C446.322,65.493 450.896,68.111 452.689,72.679C454.483,77.246 454.533,83.54 452.839,91.561L450.845,101.755C450.18,104.874 449.571,108.105 449.017,111.447C448.463,114.789 448.408,117.073 448.85,118.298C449.073,118.966 449.378,119.607 449.765,120.22C450.152,120.832 450.789,121.417 451.675,121.974L451.343,123.645L418.416,123.645C417.97,122.309 417.748,120.47 417.748,118.131C417.748,115.012 418.054,111.837 418.667,108.606C419.279,105.375 419.753,102.813 420.087,100.919L421.758,92.898C423.206,86.103 423.401,81.563 422.343,79.279C421.285,76.995 418.862,75.854 415.074,75.854L406.886,75.854L397.027,123.645L365.945,123.645L390.677,4.333ZM158.736,28.73L158.402,28.73L139.352,79.363L156.731,79.363L158.736,28.73ZM49.116,54.798L55.299,54.798C59.755,54.798 63.32,53.489 65.993,50.871C68.667,48.254 70.449,44.828 71.341,40.595C72.343,35.581 72.037,32.017 70.422,29.9C68.806,27.783 65.659,26.725 60.98,26.725L54.964,26.725L49.116,54.798ZM411.231,54.798L417.413,54.798C421.87,54.798 425.434,53.489 428.108,50.871C430.782,48.254 432.564,44.828 433.455,40.595C434.458,35.581 434.152,32.017 432.536,29.9C430.921,27.783 427.774,26.725 423.095,26.725L417.079,26.725L411.231,54.798Z" style="fill-rule:nonzero;"/>
		</g>
		<g transform="matrix(0.430869,0,0,0.430869,238.18,212.135)">
			<path class="logoRacerOutline" fill="url(#logoOutlineFill)" filter="url(#logoOutlineFilter)" d="M255.534,40.202L253.718,49.279L287.859,49.279L289.697,40.561C290.97,34.641 291.364,29.311 290.901,24.58C290.417,19.641 288.857,15.422 286.256,11.911C283.653,8.396 279.917,5.662 275.013,3.756C270.311,1.928 264.307,0.989 256.993,0.989C248.71,0.989 241.522,2.107 235.425,4.315C229.212,6.564 223.817,10.223 219.246,15.297C214.76,20.277 210.921,26.776 207.758,34.812C204.66,42.683 201.923,52.272 199.557,63.58C197.194,74.651 195.791,84.097 195.34,91.908C194.873,100.01 195.79,106.613 198.009,111.727C200.328,117.072 204.257,120.985 209.811,123.447C215.081,125.783 222.226,126.989 231.259,126.989C236.424,126.989 241.56,126.397 246.667,125.211C251.874,124.002 256.76,121.789 261.322,118.566C265.865,115.357 269.892,111.01 273.387,105.509C276.841,100.07 279.451,93.109 281.178,84.611C281.173,84.634 283.533,73.686 283.533,73.686L249.363,73.686L249.023,75.265C247.806,80.907 246.7,85.582 245.704,89.288C244.748,92.847 243.722,95.692 242.606,97.817C241.622,99.692 240.581,101.058 239.409,101.855C238.336,102.585 237.064,102.93 235.604,102.93C233.923,102.93 232.628,102.591 231.787,101.711C230.866,100.746 230.546,98.994 230.502,96.539C230.448,93.51 230.862,89.428 231.728,84.29C232.615,79.019 233.892,72.388 235.557,64.397C237.223,56.401 238.694,49.766 239.971,44.491C241.217,39.345 242.51,35.253 243.864,32.219C245.078,29.5 246.359,27.568 247.816,26.5C249.156,25.517 250.772,25.049 252.649,25.049C254.635,25.049 255.969,25.752 256.521,27.37C257.293,29.635 256.877,33.898 255.539,40.178L255.534,40.202ZM54.86,125.645L54.404,124.278C53.907,122.787 53.633,120.74 53.633,118.131C53.633,114.89 53.95,111.59 54.587,108.233C55.198,105.013 55.67,102.459 56.008,100.541C56.008,100.541 57.685,92.49 57.687,92.481C58.517,88.588 58.929,85.472 58.897,83.13C58.879,81.845 58.746,80.838 58.414,80.12C57.636,78.441 55.743,77.854 52.959,77.854L46.401,77.854L36.541,125.645L1.373,125.645L26.934,2.333L77.189,2.333C83.399,2.333 88.521,3.179 92.563,4.819C96.8,6.539 100.007,8.988 102.218,12.12C104.413,15.23 105.74,18.915 106.167,23.184C106.576,27.275 106.263,31.718 105.22,36.469C103.562,44.884 100.431,51.649 95.884,56.792C92.834,60.241 89.091,62.825 84.648,64.528C88.551,66.092 91.124,68.605 92.436,71.947C94.339,76.792 94.478,83.467 92.687,91.945C92.687,91.945 90.693,102.139 90.686,102.172C90.027,105.262 89.424,108.463 88.875,111.774C88.403,114.627 88.239,116.573 88.625,117.642L88.632,117.666C88.805,118.182 89.041,118.677 89.341,119.151C89.459,119.339 89.618,119.516 89.814,119.689L142.739,2.333L185.062,2.333L189.552,125.645L152.293,125.645L153.296,104.757L132.079,104.757L124.726,125.645L54.86,125.645ZM321.122,96.246L362.212,96.246L356.216,125.645L279.936,125.645L305.497,2.333L380.275,2.333L374.085,31.733L334.49,31.733L331.132,48.12L368.231,48.12L362.396,76.517L325.29,76.517L321.122,96.246ZM408.515,77.854L398.656,125.645L363.488,125.645L389.049,2.333L439.304,2.333C445.514,2.333 450.636,3.179 454.678,4.819C458.915,6.539 462.122,8.988 464.333,12.12C466.528,15.23 467.855,18.915 468.281,23.184C468.691,27.275 468.378,31.718 467.335,36.469C465.676,44.884 462.545,51.649 457.998,56.792C454.949,60.241 451.206,62.825 446.763,64.528C450.666,66.092 453.238,68.605 454.551,71.947C456.453,76.792 456.593,83.467 454.802,91.945C454.802,91.945 452.807,102.139 452.801,102.172C452.142,105.262 451.538,108.463 450.99,111.774C450.517,114.627 450.354,116.573 450.739,117.642L450.747,117.666C450.92,118.182 451.156,118.677 451.456,119.151C451.711,119.555 452.155,119.914 452.739,120.281L453.905,121.014L452.986,125.645L416.975,125.645L416.519,124.278C416.022,122.787 415.748,120.74 415.748,118.131C415.748,114.89 416.065,111.59 416.702,108.233C417.312,105.013 417.784,102.459 418.123,100.541C418.123,100.541 419.8,92.49 419.802,92.481C420.632,88.588 421.043,85.472 421.012,83.13C420.994,81.845 420.861,80.838 420.528,80.12C419.75,78.441 417.858,77.854 415.074,77.854L408.515,77.854ZM284.614,45.279L285.785,39.728C286.962,34.256 287.348,29.337 286.92,24.97C286.512,20.811 285.232,17.248 283.042,14.291C280.855,11.339 277.684,9.086 273.564,7.484C269.242,5.804 263.716,4.989 256.993,4.989C249.235,4.989 242.497,6.008 236.786,8.076C231.19,10.102 226.336,13.404 222.218,17.975C218.014,22.641 214.444,28.747 211.48,36.277C208.452,43.971 205.785,53.346 203.471,64.407C201.156,75.25 199.775,84.493 199.334,92.138C198.91,99.491 199.664,105.494 201.678,110.135C203.592,114.546 206.849,117.758 211.433,119.79C216.301,121.948 222.914,122.989 231.259,122.989C236.121,122.989 240.955,122.431 245.763,121.315C250.471,120.221 254.888,118.214 259.014,115.299C263.161,112.37 266.821,108.386 270.01,103.364C273.24,98.28 275.644,91.759 277.261,83.803L278.579,77.686L252.589,77.686C251.49,82.706 250.482,86.919 249.567,90.326C248.518,94.231 247.372,97.345 246.148,99.676C244.793,102.258 243.271,104.066 241.658,105.163C239.946,106.327 237.932,106.93 235.604,106.93C232.606,106.93 230.393,106.043 228.894,104.472C227.474,102.985 226.57,100.396 226.502,96.61C226.445,93.4 226.866,89.071 227.783,83.626C228.678,78.314 229.963,71.633 231.641,63.581C233.317,55.535 234.798,48.858 236.083,43.55C237.4,38.112 238.78,33.794 240.211,30.589C241.782,27.069 243.565,24.657 245.45,23.274C247.452,21.806 249.846,21.049 252.649,21.049C256.679,21.049 259.187,22.795 260.307,26.08C261.205,28.715 261.009,33.691 259.454,40.994L258.597,45.279L284.614,45.279ZM392.305,6.333L368.402,121.645L395.397,121.645L405.256,73.854L415.074,73.854C419.87,73.854 422.818,75.547 424.158,78.438C425.313,80.932 425.295,85.895 423.716,93.306L422.051,101.3C421.716,103.197 421.243,105.756 420.632,108.979C420.043,112.083 419.748,115.134 419.748,118.131C419.748,119.494 419.822,120.666 419.986,121.645L448.321,121.645C448.232,121.527 448.15,121.408 448.074,121.288C447.599,120.537 447.226,119.75 446.969,118.977C446.462,117.572 446.409,114.952 447.044,111.12C447.603,107.747 448.218,104.486 448.882,101.371C448.882,101.371 450.877,91.177 450.883,91.148C452.474,83.613 452.513,77.7 450.828,73.41C449.27,69.444 445.173,67.397 438.789,66.816L436.97,66.651L436.97,62.771L438.67,62.513C445.514,61.476 450.968,58.705 455.002,54.142C459.123,49.481 461.907,43.323 463.419,35.654C464.372,31.312 464.672,27.288 464.301,23.582C463.948,20.053 462.88,16.998 461.065,14.426C459.265,11.877 456.623,9.925 453.174,8.526C449.529,7.047 444.903,6.333 439.304,6.333L392.305,6.333ZM370.84,27.733L375.345,6.333L308.753,6.333L284.85,121.645L352.949,121.645L357.313,100.246L316.188,100.246L322.046,72.517L359.134,72.517L363.325,52.12L326.23,52.12L331.227,27.733L370.84,27.733ZM156.49,121.645L185.404,121.645L181.205,6.333L145.323,6.333L93.319,121.645L121.894,121.645L129.246,100.757L157.492,100.757L156.49,121.645ZM30.19,6.333L6.288,121.645L33.282,121.645L43.142,73.854L52.959,73.854C57.755,73.854 60.703,75.547 62.043,78.438C63.198,80.932 63.181,85.895 61.601,93.306L59.936,101.3C59.601,103.197 59.128,105.756 58.517,108.979C57.928,112.083 57.633,115.134 57.633,118.131C57.633,119.494 57.707,120.666 57.871,121.645L86.206,121.645C86.117,121.527 86.035,121.408 85.96,121.288C85.485,120.537 85.111,119.75 84.854,118.977C84.347,117.572 84.294,114.952 84.929,111.12C85.488,107.747 86.103,104.486 86.767,101.371C86.767,101.371 88.762,91.177 88.768,91.148C90.359,83.613 90.398,77.7 88.713,73.41C87.155,69.444 83.058,67.397 76.674,66.816L74.855,66.651L74.855,62.771L76.555,62.513C83.399,61.476 88.853,58.705 92.887,54.142C97.009,49.481 99.792,43.323 101.304,35.654C102.257,31.312 102.557,27.288 102.187,23.582C101.834,20.053 100.765,16.998 98.95,14.426C97.15,11.877 94.508,9.925 91.059,8.526C87.414,7.047 82.788,6.333 77.189,6.333L30.19,6.333ZM160.817,26.73L157.018,26.73L136.463,81.363L158.653,81.363L160.817,26.73ZM142.241,77.363L154.808,77.363L156.287,40.031L142.241,77.363ZM46.656,56.798L55.299,56.798C60.345,56.798 64.364,55.266 67.393,52.3C70.334,49.42 72.317,45.664 73.298,41.007C74.457,35.211 73.873,31.125 72.011,28.687C70.111,26.196 66.486,24.725 60.98,24.725L53.338,24.725L46.656,56.798ZM408.771,56.798L417.413,56.798C422.46,56.798 426.479,55.266 429.507,52.3C432.449,49.42 434.432,45.664 435.413,41.007C436.572,35.211 435.987,31.125 434.126,28.687C432.225,26.196 428.601,24.725 423.095,24.725L415.453,24.725L408.771,56.798ZM413.69,52.798L417.413,52.798C421.279,52.798 424.39,51.713 426.709,49.442C429.115,47.087 430.696,43.992 431.494,40.202C432.345,35.95 432.317,32.909 430.946,31.113C429.616,29.369 426.95,28.725 423.095,28.725L418.705,28.725L413.69,52.798ZM51.575,52.798L55.299,52.798C59.164,52.798 62.275,51.713 64.594,49.442C67,47.087 68.581,43.992 69.379,40.202C70.23,35.95 70.202,32.909 68.832,31.113C67.501,29.369 64.835,28.725 60.98,28.725L56.591,28.725L51.575,52.798Z"/>
		</g>
	</g>
</svg>
